<?xml version="1.0" encoding="UTF-8"?>
<svg xmlns="http://www.w3.org/2000/svg" width="512" height="512" viewBox="0 0 512 512">
  <defs>
    <style>
      .cls-1 {
        fill: #ffa07a;
      }
    </style>
  </defs>
  <g id="Layer_1" data-name="Layer 1">
    <path class="cls-1" d="M395.3,445.74c-2.12-2.08-4.04-4.36-5.82-6.72l-.37-.41-.42-.45c-6.7-7.16-17.71-9.15-26.69-4.92-2.55,1.17-4.9,2.85-6.88,4.84-.9,.77-1.74,1.53-2.68,2.23-17.57,13.79-43.65,15.56-62.93,4.62-3.1-1.73-6-3.76-8.6-6.06-2.7-2.26-4.8-5.08-7.64-7.17-9.9-7.72-24.63-7.7-34.53,0-2.83,2.09-4.95,4.91-7.63,7.17-19.45,17.18-51.2,17.52-71.58,1.48-.94-.7-1.79-1.47-2.69-2.23-7.32-7.6-19.75-9.24-28.63-3.8-2.12,1.26-4.02,2.89-5.65,4.75-18.21,24.62-53.47,31.05-81.56,19.8,25.65,26.28,69.03,25.5,96.86,4.17,.02,.02,.04,.05,.06,.07,30.39,32.88,84.19,34.74,118.1,6.91,4.63,3.78,9.65,7.07,14.91,9.79,33.4,17.56,77.64,11.01,103.26-16.72,27.9,21.82,72.08,21.51,96.8-4.22-25.42,10.05-56.25,5.99-75.7-13.12Z"/>
    <path class="cls-1" d="M112.11,431.33c.22-.29,.45-.58,.69-.85,2.57-2.93,5.5-5.38,8.69-7.29,5.45-3.32,11.82-5.07,18.43-5.07,9.76,0,19.13,3.82,25.83,10.5l.16,.14c.55,.48,1.03,.89,1.4,1.17,.09,.07,.18,.14,.27,.21,7.33,5.77,16.93,8.95,27.04,8.94,10.73,0,20.63-3.53,27.89-9.95,.07-.06,.15-.13,.22-.19,.68-.57,1.49-1.41,2.35-2.29,1.53-1.57,3.42-3.52,5.82-5.31,7.04-5.43,15.96-8.43,25.13-8.43s18.08,2.99,25.11,8.42c2.38,1.77,4.25,3.7,5.76,5.25,.86,.89,1.68,1.73,2.36,2.3,.09,.08,.19,.16,.28,.24,1.86,1.65,3.99,3.15,6.33,4.45,6.33,3.59,13.72,5.47,21.45,5.47,10.11,0,19.74-3.18,27.1-8.97,.09-.07,.17-.13,.26-.2,.34-.25,.79-.64,1.31-1.09l.32-.28c3.04-2.96,6.47-5.34,10.22-7.07,4.76-2.23,10.08-3.41,15.39-3.41,10.01,0,19.58,4.1,26.27,11.24,0,0,.53,.56,.58,.63l.37,.41c.25,.28,.49,.57,.72,.87,1.6,2.12,3.09,3.84,4.54,5.26,9.68,9.51,23.34,14.74,38.48,14.74,2.41,0,4.83-.16,7.23-.43l-5.3-9.24c-.05-.08-.09-.15-.14-.23-14.69-23.65-40.21-43.76-73.78-58.16-33.81-14.5-73.54-22.17-114.89-22.17s-81.08,7.67-114.89,22.17c-33.57,14.4-59.09,34.51-73.73,58.09l-6.06,9.5c2.57,.32,5.17,.49,7.76,.49,17.74,0,33.83-7.43,43.03-19.88Z"/>
    <circle class="cls-1" cx="111.81" cy="275.74" r="53.95"/>
    <path class="cls-1" d="M355.12,363.28c7.5-51.39,2.6-117.28-5.87-155.15-11.65-11.08-17.21-15.7-29.26-24.56-2.71,4.52-6.32,11.02-10.97,20.23,6.28,40.95-2.42,90.26-25.79,145.25,25.19,2.01,49.47,6.8,71.89,14.22Z"/>
    <path class="cls-1" d="M412.88,64.58l16.6-4.42-14.53-9.17c-29.19-18.42-60.97-22.34-87.2-10.76-20.03,8.84-34.57,26.09-40.84,48.04-6.95-2.12-17.59-4.57-29.68-4.57h-.08c-19.83,.02-47.28,6.76-65.42,38.81l-9.62,17.01,18.53-6.2c.19-.06,10.43-3.44,23.83-5.76-1.67,1.2-3.34,2.48-5.01,3.86-21.26,17.66-33.25,44.13-35.62,78.68l-1.53,22.21,14.66-16.76c8.67-9.92,16.96-18.26,24.68-25.27v-32.59l9.46,24.41c8.44-6.92,16.01-12.17,22.44-16.1-23.83,45.42-13.18,90.86-2.7,107.02l7.81,12.04,5.43-13.29c.1-.26,10.57-25.83,22.85-52.21,17.19-36.93,25.84-49.62,29.63-53.97,12.22,7.5,26.56,19.43,39.81,31.52l26.96-10.66-13.18,23.62c5.12,4.95,8.2,8.03,12.26,12.15l9.09-12.62-2.82,18.97c6.15,6.34,9.97,10.48,10.11,10.64l10.16,11.06,2.74-14.77c.16-.85,3.78-21.12-2.92-45.81-4.22-15.53-13.22-34.86-32.19-51.44,36.91,5.89,74.05,24.72,74.53,24.97l14.82,7.6-4.13-16.13c-.38-1.49-9.74-36.74-43.72-55.34-18.47-10.1-40.34-13.24-65.29-9.42,9.43-5.96,20.46-11.16,30.79-15.35l-9.94-18.6s14.83,5.91,28.74,11.73c4.09-1.33,7.67-2.39,10.46-3.13Z"/>
  </g>
  <g id="Layer_2" data-name="Layer 2"/>
</svg>