<?xml version="1.0" encoding="UTF-8"?>
<svg xmlns="http://www.w3.org/2000/svg" width="512" height="512" viewBox="0 0 512 512">
  <defs>
    <style>
      .cls-1 {
        fill: #ffa07a;
      }
    </style>
  </defs>
  <g id="Layer_1" data-name="Layer 1">
    <path class="cls-1" d="M399.11,279.17c-1.71-1.93-3.68-3.63-5.9-4.95-9.28-5.66-22.23-3.93-29.85,3.99-1.02,.88-1.98,1.78-3.05,2.6-20.13,16.23-50.29,18.44-72.64,5.83-4.51-2.52-8.59-5.55-12.25-9.09-2.03-1.99-3.87-4.18-6.19-5.87-10.24-7.98-25.49-7.99-35.73,0-3.12,2.31-5.44,5.45-8.42,7.91-15.85,13.94-39.19,18.36-59.51,12.81-9.37-2.53-18.3-7.22-25.6-13.73-7.26-7.61-18.64-10.04-28.14-5.7-3.15,1.43-5.97,3.56-8.24,6.17-20.89,27.48-60.81,34.38-92.21,21.03,28.26,28.2,77.86,27.78,108.4,2.38,33.49,37.05,94.23,39.25,131.61,7.12,37.39,32.12,98.15,29.85,131.59-7.19,30.51,25.42,80.13,25.87,108.4-2.3-31.38,13.39-71.36,6.5-92.25-20.99Z"/>
    <path class="cls-1" d="M304.71,403.13c5.44,3.89,11.38,7.09,17.46,9.42,26.86,10.41,61.24,4.74,79.32-18.48-24.02,6.45-50.58,2.98-69.75-12.99-3.28-2.82-6.33-5.99-8.92-9.45-5.84-6.77-15.28-10.19-24.13-8.84-5.83,.8-11.57,3.77-15.74,8.1-.16,.17-.69,.6-.87,.76-6.3,5.66-13.88,9.79-22.04,12.15-9.38,2.81-19.64,3.23-29.31,1.52-9.59-1.79-18.73-5.72-26.49-11.76-8.96-9.08-24.41-9.3-33.06,.27l-.51,.57c-.14,.17-.4,.45-.39,.46-2.26,3.56-4.9,7.03-7.89,10.12-9.29,9.85-21.08,16.36-34.25,21.01,17.64,6.3,39.78,2.37,55.94-8.61,29.89,35.61,87.12,37.52,120.61,5.75Z"/>
    <path class="cls-1" d="M494.6,190.89c-67.87-13.51-137.5,11.07-148.38,15.16H36.36c-4.14,0-7.5,3.36-7.5,7.5v78.58c4.99,1.09,10.15,1.65,15.31,1.65,20.34,0,38.24-8.19,49.09-22.48,.2-.25,.4-.5,.61-.73,2.65-3.01,5.66-5.53,8.94-7.49,5.59-3.39,12.12-5.18,18.89-5.18,10.06,0,19.72,3.95,26.6,10.86,.17,.15,.34,.3,.5,.44,.59,.52,1.1,.97,1.5,1.28,.09,.07,.18,.14,.28,.21,8.84,7.14,20.45,11.06,32.7,11.06,9.15,0,17.93-2.22,25.39-6.42,3.55-1.99,6.76-4.37,9.59-7.11,.44-.43,.92-.93,1.4-1.42,1.57-1.63,3.52-3.65,6-5.49,7.21-5.56,16.33-8.61,25.71-8.61s18.53,3.06,25.73,8.63c2.5,1.87,4.41,3.85,6.1,5.59,.99,1.02,1.93,1.98,2.71,2.63,.11,.09,.22,.18,.33,.28,8.59,7.56,20.76,11.9,33.36,11.9,4.84,0,9.6-.63,14.13-1.87,7.52-2.03,14.43-5.69,20.06-10.61,7.16-7.27,17.04-11.43,27.2-11.43,5.35,0,10.5,1.12,15.31,3.32,4.74,2.13,9.13,5.41,12.65,9.45,.19,.22,.37,.44,.55,.67,7.07,9.31,17.13,16.03,28.91,19.59l60.9-88.34c1.43-2.08,1.72-4.74,.77-7.08-.95-2.34-3.01-4.04-5.48-4.54Z"/>
    <path class="cls-1" d="M343.9,193.05c9.38-3.38,35.42-11.98,68.39-16.42l-20.77-27.44s-.06-.07-.09-.11c-.09-.11-.18-.21-.27-.32-.07-.08-.15-.17-.23-.26-.08-.08-.17-.16-.26-.24-.09-.09-.19-.18-.29-.27-.08-.07-.16-.13-.24-.19-.11-.09-.22-.17-.34-.25-.08-.06-.17-.12-.26-.17-.12-.07-.23-.15-.35-.21-.1-.06-.2-.11-.3-.16-.12-.06-.23-.11-.34-.16-.11-.05-.23-.1-.35-.14-.11-.04-.21-.08-.32-.12-.13-.04-.25-.07-.38-.11-.11-.03-.22-.06-.33-.08-.12-.03-.24-.05-.36-.07-.13-.02-.25-.04-.38-.06-.1-.01-.22-.02-.33-.03-.14-.01-.28-.02-.43-.02h-33.14l-43.03-56.86c-.04-.05-.08-.1-.13-.15-.05-.08-.12-.15-.18-.22-.1-.12-.21-.24-.31-.35-.06-.05-.11-.1-.17-.16-.12-.12-.25-.23-.38-.34l-.15-.12c-.14-.11-.28-.22-.42-.32-.06-.04-.12-.07-.18-.11-.14-.09-.28-.18-.43-.26-.08-.05-.15-.08-.23-.12-.13-.07-.27-.14-.41-.2-.09-.04-.19-.08-.29-.11-.13-.05-.25-.1-.37-.14-.12-.04-.23-.07-.34-.1l-.36-.09c-.12-.03-.24-.05-.35-.07l-.39-.06-.33-.03c-.14-.01-.28-.01-.42-.02H52.96c-4.15,0-7.5,3.35-7.5,7.5s3.35,7.5,7.5,7.5h15.98v91.66H343.9ZM198.91,102.39h98.88l32.93,43.83H198.91v-43.83Zm-56.84,0h38.84v43.83h-38.84v-43.83Z"/>
  </g>
  <g id="Layer_2" data-name="Layer 2"/>
</svg>