<?xml version="1.0" encoding="UTF-8"?>
<svg xmlns="http://www.w3.org/2000/svg" width="512" height="512" viewBox="0 0 512 512">
  <defs>
    <style>
      .cls-1 {
        fill: #ffa07a;
      }
    </style>
  </defs>
  <g id="Layer_1" data-name="Layer 1">
    <polygon class="cls-1" points="352.4 92.79 402.11 136.11 402.11 54.63 352.4 54.63 352.4 92.79"/>
    <path class="cls-1" d="M481.85,464.48H30.15c-3.59,0-6.5,2.91-6.5,6.5s2.91,6.5,6.5,6.5H481.85c3.59,0,6.5-2.91,6.5-6.5s-2.91-6.5-6.5-6.5Z"/>
    <path class="cls-1" d="M288.36,369.64h13.8v-65.35c0-1.93-1.58-3.5-3.5-3.5h-85.33c-1.93,0-3.5,1.57-3.5,3.5v147.19h92.33v-68.84h-13.8c-3.59,0-6.5-2.91-6.5-6.5s2.91-6.5,6.5-6.5Z"/>
    <circle class="cls-1" cx="67.34" cy="273.6" r="19.84"/>
    <circle class="cls-1" cx="67.34" cy="326.29" r="19.84" transform="translate(-31.82 8.22) rotate(-5.65)"/>
    <circle class="cls-1" cx="67.34" cy="378.96" r="19.84" transform="translate(-139.9 54.62) rotate(-22.5)"/>
    <circle class="cls-1" cx="67.34" cy="431.64" r="19.84" transform="translate(-368.84 456.12) rotate(-84.35)"/>
    <circle class="cls-1" cx="444.66" cy="273.6" r="19.84" transform="translate(-38.08 74.76) rotate(-9.22)"/>
    <circle class="cls-1" cx="444.66" cy="326.29" r="19.84" transform="translate(-91.02 195) rotate(-22.5)"/>
    <circle class="cls-1" cx="444.66" cy="378.96" r="19.84" transform="translate(-.64 757.18) rotate(-80.78)"/>
    <circle class="cls-1" cx="444.66" cy="431.64" r="19.84" transform="translate(-124.29 677.27) rotate(-67.5)"/>
    <path class="cls-1" d="M76.68,240.77H435.32L256,84.6,76.68,240.77Zm273.94-46.18c0,3.59-2.91,6.5-6.5,6.5H167.88c-3.59,0-6.5-2.91-6.5-6.5s2.91-6.5,6.5-6.5h176.24c3.59,0,6.5,2.91,6.5,6.5Zm-60.5-52.69c0,3.59-2.91,6.5-6.5,6.5h-55.24c-3.59,0-6.5-2.91-6.5-6.5s2.91-6.5,6.5-6.5h55.24c3.59,0,6.5,2.91,6.5,6.5Z"/>
    <path class="cls-1" d="M93.49,253.77c4.2,5.52,6.69,12.39,6.69,19.84s-2.49,14.32-6.69,19.84h75.11c3.59,0,6.5,2.91,6.5,6.5s-2.91,6.5-6.5,6.5H93.49c4.2,5.52,6.69,12.39,6.69,19.84s-2.49,14.32-6.69,19.84h74.84c3.59,0,6.5,2.91,6.5,6.5s-2.91,6.5-6.5,6.5H93.49c4.2,5.52,6.69,12.39,6.69,19.84s-2.49,14.32-6.69,19.84h74.84c3.59,0,6.5,2.91,6.5,6.5s-2.91,6.5-6.5,6.5H93.49c4.2,5.52,6.69,12.39,6.69,19.84s-2.49,14.32-6.69,19.84h103.34v-147.19c0-9.1,7.41-16.5,16.5-16.5h85.33c9.09,0,16.5,7.4,16.5,16.5v147.19h103.35c-4.2-5.52-6.69-12.39-6.69-19.84s2.49-14.32,6.69-19.84h-74.85c-3.59,0-6.5-2.91-6.5-6.5s2.91-6.5,6.5-6.5h74.85c-4.2-5.52-6.69-12.39-6.69-19.84s2.49-14.32,6.69-19.84h-74.85c-3.59,0-6.5-2.91-6.5-6.5s2.91-6.5,6.5-6.5h74.85c-4.2-5.52-6.69-12.39-6.69-19.84s2.49-14.32,6.69-19.84h-75.12c-3.59,0-6.5-2.91-6.5-6.5s2.91-6.5,6.5-6.5h75.12c-4.2-5.52-6.69-12.39-6.69-19.84s2.49-14.32,6.69-19.84H93.49Z"/>
    <path class="cls-1" d="M492.76,232.34L273.04,40.86c-4.86-4.23-10.95-6.35-17.04-6.35s-12.18,2.12-17.04,6.35L19.24,232.34c-1.18,1.03-1.89,2.46-1.99,4.03s.41,3.09,1.45,4.27l12.7,14.51c2.15,2.45,5.88,2.69,8.32,.55L251.73,71.08c1.22-1.07,2.75-1.6,4.27-1.6s3.04,.53,4.27,1.6l212.01,184.62c2.44,2.14,6.17,1.9,8.32-.55l12.7-14.51c1.04-1.18,1.55-2.7,1.45-4.27s-.81-3-1.99-4.03Z"/>
  </g>
  <g id="Layer_2" data-name="Layer 2"/>
</svg>