<?xml version="1.0" encoding="UTF-8"?>
<svg xmlns="http://www.w3.org/2000/svg" width="512" height="512" viewBox="0 0 512 512">
  <defs>
    <style>
      .cls-1 {
        fill: white;
      }
    </style>
  </defs>
  <g id="Layer_1" data-name="Layer 1">
    <path class="cls-1" d="M348.14,380.84l-102.49-124.01c-14.86,59.2,13.21,124.01,102.49,124.01Z"/>
    <path class="cls-1" d="M504.5,364.43c-3.56-2.12-8.16-.96-10.28,2.6l-7.96,13.33c-2.29-10.99-5.08-22.2-8.31-33.49-.1-.53-.24-1.04-.44-1.52-14.96-51.64-39.19-104.98-67.96-148.03-21.81-32.63-45.28-58.49-69.77-76.87-27.67-20.76-55.86-31.29-83.78-31.29s-56.11,10.53-83.78,31.29c-24.49,18.38-47.96,44.24-69.77,76.87-28.77,43.05-53,96.39-67.96,148.02-.2,.49-.34,1-.44,1.53-3.23,11.29-6.02,22.5-8.31,33.49l-7.96-13.33c-2.12-3.56-6.73-4.72-10.28-2.6-3.56,2.12-4.72,6.73-2.6,10.28l26.54,44.47c1.4,2.35,3.89,3.66,6.44,3.66,1.31,0,2.63-.34,3.84-1.06,3.56-2.13,4.72-6.73,2.6-10.29l-1.59-2.65H469.27l-1.59,2.65c-2.12,3.56-.96,8.16,2.6,10.29,1.21,.72,2.53,1.06,3.84,1.06,2.55,0,5.04-1.31,6.44-3.66l26.54-44.47c2.12-3.55,.96-8.16-2.6-10.28Zm-362.01-9.73H47.41c1.2-4.32,2.47-8.66,3.8-13h91.28c3.59,0,6.5,2.91,6.5,6.5s-2.91,6.5-6.5,6.5Zm217.49,39.14H164.92c5.25-34.15,17.54-72.42,32.88-101.85,15.69-30.1,32.9-48.75,49.33-53.77l128.61,155.62h-15.76Zm9.53-39.14c-3.59,0-6.5-2.91-6.5-6.5s2.91-6.5,6.5-6.5h91.28c1.33,4.34,2.6,8.68,3.8,13h-95.08Z"/>
  </g>
  <g id="Layer_2" data-name="Layer 2"/>
</svg>