<?xml version="1.0" encoding="UTF-8"?>
<svg xmlns="http://www.w3.org/2000/svg" width="512" height="512" viewBox="0 0 512 512">
  <defs>
    <style>
      .cls-1 {
        fill: white;
      }
    </style>
  </defs>
  <g id="Layer_1" data-name="Layer 1">
    <path class="cls-1" d="M310.08,262.9l43.76,25.72,2.02-2.19c.06-.06,.12-.13,.18-.2,71.14-82.96,115.42-174.51,118.46-244.9,.09-2.12-.72-4.18-2.24-5.67-1.51-1.49-3.59-2.27-5.72-2.14-80.21,4.99-185.26,63.55-274.15,152.84-.06,.06-.12,.13-.18,.19l-4.25,4.59,44.16,25.95,1.89-2.04c15.81-15.52,31.99-29.48,47.69-41.25l65.91,40.43c-8.86,13.71-19.93,28.61-33.3,44.2l-4.23,4.48Zm-15.14-98.58c9.32-6.35,18.37-11.83,26.97-16.28,23.44-12.14,42.18-15.59,48.9-9,7.77,7.63,2.81,30.94-15.36,62.4l-60.51-37.12Z"/>
    <path class="cls-1" d="M203.6,247.88c-18.65-10.96-34.63-20.35-44.17-25.96l-2.02,2.18c-.06,.07-.12,.14-.18,.2-71.91,83.42-116.67,175.52-119.73,246.39-.09,2.12,.72,4.18,2.24,5.67,1.4,1.38,3.29,2.15,5.25,2.15,.15,0,.31,0,.46-.01,80.74-5.01,186.32-64.11,275.55-154.25,.06-.07,.12-.13,.18-.2l4.22-4.58c-10.97-6.45-26.67-15.67-44.22-25.99l-1.87,1.98c-14.56,14.01-29.4,26.67-43.82,37.47l-65.93-40.45c8.41-12.96,18.52-26.55,29.91-40.14l4.13-4.45Zm18.64,94.51c-9.9,6.75-19.5,12.53-28.55,17.11-22.64,11.47-40.76,14.6-47.3,8.19-5.78-5.68-4.32-20.62,3.9-39.98,3-7.03,6.84-14.58,11.41-22.46l60.54,37.14Z"/>
    <path class="cls-1" d="M481.83,355.36c-1.23-10.51-9.91-17.1-18.24-22.17-8.08-4.92-21.33-11.96-32.06-15.62-21.78-7.43-40.84-8.74-54.76-9.71-9.79-.68-18.26-1.26-22.41-3.7,0,0,0-.01-.01-.01L99.66,154.45l6.96-11.84c2.1-3.57,.9-8.17-2.67-10.27-3.57-2.09-8.16-.9-10.26,2.67l-21.52,36.6c-2.09,3.57-.9,8.17,2.67,10.27,1.19,.7,2.5,1.03,3.79,1.03,2.57,0,5.08-1.32,6.48-3.7l6.95-11.83,254.7,149.7h0c4.15,2.45,8.78,9.56,14.14,17.79,7.61,11.68,18.04,27.69,35.13,43.11,8.42,7.59,21.01,15.74,29.24,20.41,6.14,3.49,13.06,6.74,20.13,6.74,2.69,0,5.41-.48,8.11-1.59,7.54-3.12,12.95-10.39,19.25-21.1s10.01-18.98,9.07-27.08Z"/>
  </g>
  <g id="Layer_2" data-name="Layer 2"/>
</svg>