<?xml version="1.0" encoding="UTF-8"?>
<svg xmlns="http://www.w3.org/2000/svg" width="512" height="512" viewBox="0 0 512 512">
  <defs>
    <style>
      .cls-1 {
        fill: white;
      }
    </style>
  </defs>
  <g id="Layer_1" data-name="Layer 1">
    <path class="cls-1" d="M253.61,456.34c29.89,35.61,87.12,37.52,120.61,5.75,5.44,3.89,11.38,7.09,17.46,9.42,26.86,10.41,61.25,4.74,79.32-18.48-24.02,6.45-50.58,2.98-69.75-12.99-3.29-2.82-6.33-5.99-8.92-9.45-5.84-6.77-15.28-10.19-24.13-8.84-5.83,.8-11.57,3.77-15.74,8.1-.16,.17-.69,.6-.87,.76-6.3,5.66-13.88,9.79-22.04,12.15-9.38,2.81-19.64,3.23-29.31,1.52-9.59-1.79-18.73-5.72-26.49-11.76-8.96-9.08-24.41-9.3-33.06,.27l-.51,.57c-.14,.17-.4,.45-.39,.46-2.26,3.56-4.9,7.03-7.89,10.12-9.29,9.85-21.08,16.36-34.25,21.01,17.64,6.3,39.78,2.37,55.94-8.61Z"/>
    <path class="cls-1" d="M124.4,370.16c33.49,37.05,94.23,39.25,131.61,7.12,37.39,32.12,98.15,29.85,131.59-7.19,30.51,25.42,80.13,25.87,108.4-2.3-31.38,13.39-71.36,6.5-92.25-20.99-1.71-1.93-3.68-3.63-5.9-4.95-9.28-5.66-22.23-3.93-29.85,3.99-1.02,.88-1.98,1.78-3.05,2.6-20.13,16.23-50.29,18.44-72.64,5.83-4.51-2.52-8.59-5.55-12.25-9.09-2.03-1.99-3.87-4.18-6.19-5.87-10.24-7.98-25.49-7.99-35.73,0-3.12,2.31-5.44,5.45-8.42,7.91-15.85,13.94-39.19,18.36-59.51,12.81-9.37-2.53-18.3-7.22-25.6-13.73-7.26-7.61-18.64-10.04-28.14-5.7-3.15,1.43-5.97,3.56-8.24,6.17-20.89,27.48-60.81,34.38-92.21,21.03,28.26,28.2,77.86,27.78,108.4,2.38Z"/>
    <path class="cls-1" d="M291.02,28.7c-2.53-1.7-5.83-1.7-8.36,0l-126.03,84.73H417.05L291.02,28.7Z"/>
    <rect class="cls-1" x="172.96" y="128.43" width="38.77" height="108.99"/>
    <rect class="cls-1" x="226.73" y="128.43" width="19.27" height="108.99"/>
    <rect class="cls-1" x="361.95" y="128.43" width="38.77" height="108.99"/>
    <rect class="cls-1" x="327.68" y="128.43" width="19.27" height="108.99"/>
    <path class="cls-1" d="M34.35,292.88h46.72v57.76c0,.86,.15,1.68,.42,2.45,5.57-3.17,10.5-7.19,14.58-12v-48.21h86.55v56.23c1.7,.16,3.41,.24,5.13,.24,3.34,0,6.65-.31,9.87-.9v-55.57h86.55v38.09c1.35,1.21,2.53,2.41,3.53,3.45,.48,.5,.96,1,1.46,1.48,2.91,2.81,6.3,5.29,10,7.31,.01-.01,0-.01,.01-.01v-50.32h86.55v32.65c5.26,.01,10.36,1.11,15,3.19v-35.84h16.2c4.14,0,7.5-3.36,7.5-7.5v-25.46c0-4.14-3.36-7.5-7.5-7.5H34.35v40.46Z"/>
  </g>
  <g id="Layer_2" data-name="Layer 2"/>
</svg>