<?xml version="1.0" encoding="UTF-8"?>
<svg xmlns="http://www.w3.org/2000/svg" width="512" height="512" viewBox="0 0 512 512">
  <defs>
    <style>
      .cls-1 {
        fill: white;
      }
    </style>
  </defs>
  <g id="Layer_1" data-name="Layer 1">
    <path class="cls-1" d="M396.97,113.58c.38-46.96-28.08-76.81-29.29-78.05-.01-.01-.02-.02-.02-.03-.12-.12-.25-.23-.37-.34-.07-.06-.14-.13-.21-.18-.09-.08-.18-.15-.28-.22-.11-.08-.22-.17-.34-.25-.01-.01-.03-.02-.04-.03-.06-.04-.13-.07-.2-.11-.13-.09-.27-.17-.41-.25-.09-.04-.18-.08-.28-.13-.12-.06-.25-.12-.38-.18-.12-.04-.23-.08-.35-.12l-.33-.12c-.14-.04-.27-.07-.4-.1-.1-.03-.2-.05-.3-.07-.14-.03-.28-.05-.42-.07-.1,0-.2-.03-.3-.04-.14-.01-.27-.02-.41-.02-.11,0-.21,0-.32,0-.12-.01-.25,0-.37,0-.12,0-.24,.01-.36,.02-.11,.01-.22,.03-.33,.04-.13,.02-.26,.04-.4,.06-.09,.02-.19,.05-.28,.07-.14,.03-.28,.07-.42,.11-.09,.02-.18,.05-.26,.08-.14,.05-.29,.1-.43,.16-.08,.03-.17,.07-.26,.11-.13,.06-.26,.12-.39,.19-.1,.05-.2,.11-.29,.17-.11,.06-.22,.12-.33,.19-.12,.08-.23,.16-.34,.25-.09,.06-.17,.12-.25,.18-.13,.1-.25,.21-.36,.32-.06,.05-.12,.1-.17,.15-.02,.01-.03,.02-.04,.03-.1,.1-.19,.21-.29,.32-.08,.08-.16,.17-.23,.26-.06,.07-.11,.14-.17,.21-.1,.14-.2,.27-.3,.41,0,.01-.01,.02-.02,.03L169.43,320.35l-1.28-.84c-3.76-2.47-8.26-3.34-12.67-2.42-4.41,.91-8.2,3.48-10.67,7.24l-75.18,114.31c-7.85,11.93-4.53,28.01,7.4,35.85,2.19,1.44,4.51,2.5,6.9,3.21,2.39,.7,4.84,1.04,7.28,1.04,8.43,0,16.7-4.1,21.66-11.65l75.19-114.32c5.1-7.76,2.94-18.23-4.82-23.33l-1.28-.85,6.64-10.09c2.61,8.6,8.08,15.94,15.67,20.94,6.37,4.18,13.66,6.35,21.11,6.35,2.61,0,5.25-.27,7.87-.81,10.08-2.08,18.75-7.96,24.41-16.57,11.68-17.75,6.73-41.7-11.02-53.38-7.6-5-16.51-7.11-25.43-6.11l25.93-39.43,10.77,7.09c1.27,.83,2.7,1.23,4.11,1.23,2.44,0,4.83-1.19,6.28-3.38,2.27-3.46,1.31-8.11-2.15-10.38l-10.77-7.09,32.15-48.87,10.76,7.08c1.27,.84,2.7,1.24,4.12,1.24,2.44,0,4.83-1.19,6.27-3.38,2.28-3.46,1.32-8.11-2.14-10.39l-10.77-7.08,32.14-48.87,10.78,7.09c1.27,.83,2.7,1.23,4.11,1.23,2.44,0,4.83-1.19,6.27-3.38,2.28-3.46,1.32-8.11-2.14-10.39l-10.78-7.09,26.75-40.66c7.48,10.61,19.29,31.85,19.07,59.97-.18,21.52-5.62,38.54-10.89,54.99-6.47,20.21-13.16,41.11-8.95,68.37,4.33,28.01,22.3,43.51,38.16,57.18,17.93,15.46,33.42,28.81,31.11,57.97-2.78,35.25-38.7,47.78-77.11,56.07-7.67,1.66-14.84,2.76-21.17,3.73-19.14,2.94-34.26,5.25-40.64,20.05-4.64,10.74-1.29,22.67,8.14,29.03,3.63,2.44,8.19,3.96,13.05,3.96,6.06,0,12.6-2.36,18.37-8.22,2.91-2.95,2.88-7.7-.07-10.61-2.95-2.9-7.7-2.87-10.61,.08-5.87,5.95-10.94,3.3-12.36,2.35-2.62-1.77-4.92-5.62-2.75-10.64,2.96-6.87,11.55-8.48,29.14-11.17,6.54-1.01,13.96-2.14,22.06-3.89,18.34-3.96,39.4-9.41,56.51-19.78,19.84-12.02,30.74-28.77,32.4-49.78,2.9-36.74-17.91-54.68-36.27-70.51-15.25-13.14-29.65-25.56-33.13-48.11-3.68-23.77,1.92-41.26,8.4-61.51,5.61-17.52,11.41-35.63,11.61-59.44Zm-171.49,182.14c2.17,0,4.37,.61,6.31,1.89,2.57,1.69,4.33,4.28,4.95,7.29,.63,3.01,.03,6.09-1.65,8.65-3.49,5.3-10.64,6.78-15.94,3.29-5.3-3.49-6.78-10.64-3.29-15.94,2.21-3.36,5.89-5.18,9.63-5.18Z"/>
  </g>
  <g id="Layer_2" data-name="Layer 2"/>
</svg>