<?xml version="1.0" encoding="UTF-8"?>
<svg xmlns="http://www.w3.org/2000/svg" width="512" height="512" viewBox="0 0 512 512">
  <defs>
    <style>
      .cls-1 {
        fill: white;
      }
    </style>
  </defs>
  <g id="Layer_1" data-name="Layer 1">
    <path class="cls-1" d="M256,33.5c-59.43,0-115.31,23.14-157.33,65.17-42.03,42.02-65.17,97.9-65.17,157.33s23.14,115.31,65.17,157.33c42.02,42.03,97.9,65.17,157.33,65.17s115.31-23.14,157.33-65.17c42.03-42.02,65.17-97.9,65.17-157.33s-23.14-115.31-65.17-157.33c-42.02-42.03-97.9-65.17-157.33-65.17Zm-80.72,362.51c-2.96,3.02-6.93,4.71-11.17,4.75-.05,0-.11,0-.16,0-4.18,0-8.11-1.61-11.1-4.54l-35.6-34.91c-6.24-6.12-6.34-16.18-.22-22.42,3.1-3.16,7.21-4.75,11.32-4.75s8.02,1.51,11.1,4.53l35.6,34.92c3.02,2.96,4.71,6.93,4.75,11.17s-1.57,8.23-4.54,11.26Zm80.72-47.32c-51.11,0-92.69-41.58-92.69-92.69s41.58-92.69,92.69-92.69,92.69,41.58,92.69,92.69-41.58,92.69-92.69,92.69Zm138.74,12.62l-35.6,34.92c-2.99,2.93-6.92,4.54-11.1,4.54-.05,0-.1,0-.16,0-4.24-.04-8.2-1.73-11.17-4.75-6.12-6.24-6.03-16.3,.22-22.42l35.6-34.92c6.24-6.12,16.3-6.03,22.42,.22,2.97,3.02,4.58,7.02,4.54,11.26s-1.73,8.2-4.75,11.17Zm28.29-129.58c-.4,.07-.79,.11-1.18,.11-3.08,0-5.81-2.19-6.39-5.33-12.31-67.02-65.76-119.47-132.99-130.5-3.54-.58-5.94-3.92-5.36-7.47,.58-3.54,3.93-5.94,7.47-5.36,72.64,11.92,130.38,68.58,143.67,140.98,.65,3.53-1.69,6.92-5.22,7.57Z"/>
  </g>
  <g id="Layer_2" data-name="Layer 2"/>
</svg>