<?xml version="1.0" encoding="UTF-8"?>
<svg xmlns="http://www.w3.org/2000/svg" width="512" height="512" viewBox="0 0 512 512">
  <defs>
    <style>
      .cls-1 {
        fill: #ffa07a;
      }
    </style>
  </defs>
  <g id="Layer_1" data-name="Layer 1">
    <path class="cls-1" d="M412.41,303.7c-.62-.54-1.24-1.1-1.84-1.68-2.64-2.45-4.89-5.25-7.17-8.02l-.44-.47-.91-.92c-.42-.39-.85-.77-1.29-1.12-7.08-5.77-17.21-7.03-25.65-3.06-2.65,1.22-5.09,2.98-7.16,5.05-1.02,.88-1.97,1.78-3.04,2.59-20.11,16.22-50.25,18.45-72.59,5.86-4.52-2.5-8.59-5.55-12.26-9.08-2.04-1.99-3.87-4.17-6.19-5.87-10.24-7.98-25.49-7.97-35.74,.01-3.11,2.31-5.44,5.44-8.41,7.92-15.86,13.94-39.19,18.4-59.54,12.84-9.38-2.52-18.31-7.23-25.62-13.75-7.91-8.28-20.61-10.32-30.4-4.48-2.22,1.32-4.2,3.02-5.91,4.95-13.36,17.59-34.54,26.74-56.28,27.54-5.3,.21-10.62-.09-15.87-.88-6.91-1.04-13.68-2.93-20.1-5.67,28.27,28.17,77.9,27.72,108.41,2.29,32.98,36.63,93.85,39.6,131.22,7.44,.11-.09,.21-.19,.32-.28,36.92,31.74,96.81,30.21,130.64-6,.34-.34,.66-.68,.98-1.04,30.61,25.23,80.1,25.89,108.43-2.41-27.58,11.63-61.33,7.99-83.59-11.76Z"/>
    <path class="cls-1" d="M167.97,137.49c-71.49-17.86-81.23-19.18-86.89-11.83-4.5,5.84-3.65,15.35,2.86,31.8,.59,1.51,1.26,3.13,2.04,4.96l.21,.48,15.16,3.14c.24,.05,.49,.11,.76,.2l.34,.11c.46,.15,1.33,.44,2.58,.83,15.95,5.12,97.58,30.64,138.51,30.64,16.74,0,30.79-2.94,44.24-9.26l1.02-.48-.59-.95c-1.27-2.04-5.15-6.38-16.9-12.49-6.93-3.6-13.85-6.38-17.36-7.73-1.59-.61-2.6-.97-2.67-.99-.24-.08-.47-.18-.7-.29,0,0-64.79-23.7-81.42-27.85l-1.17-.29Z"/>
    <path class="cls-1" d="M504.41,218.37c-.01-.12-.03-.24-.05-.3,0-.11-.03-.26-.08-.42-.04-.17-.08-.33-.12-.49l-.07-.21c-.06-.2-.13-.39-.2-.53-.11-.31-.26-.62-.44-.96-.07-.12-.14-.24-.23-.36-.08-.16-.17-.28-.24-.38-.14-.21-.29-.41-.44-.58-.09-.11-.44-.53-1-1.18,0,0,.46-.07-6.42-7.23-14.03-16.52-39.17-38.65-47.28-45.22l-.06-.05c-32.18-26.74-72.5-52.2-112.21-55.75l-22.41-27.73c-1.62-2.01-4.03-3.16-6.61-3.16h-42.01c-4.69,0-8.5,3.81-8.5,8.5s3.81,8.5,8.5,8.5h37.95l11.98,14.82c-18.55,4.31-32.65,18.22-44.05,29.46-6.23,6.15-12.12,11.97-17.69,15.41l-1.54,.95s11.69,4.84,17.72,7.53c11.05,4.95,25.35,12.78,30.73,21.93l.52,.88,.87-.54c4.46-2.78,8.83-5.74,13.05-8.6,6.56-4.44,13.35-9.04,21-13.36,10.28-5.79,20.2-9.94,29.9-12.49,25.42-5.47,39.7,4.27,47.91,14.32-20.39-7.32-43.1-6.47-71.42,9.49-7.23,4.07-14.07,8.71-20.14,12.82-7.35,4.97-14.95,10.12-23.36,14.51l-.14,.08c-.19,.11-.39,.22-.6,.31l-.26,.11c-16.47,8.43-33.45,12.35-53.43,12.35-41.36,0-117.62-23.32-140.01-30.46-2.03-.64-3.55-1.14-4.5-1.45l-.61-.2-11.09-2.31-9.85,15.22c-4.99,7.72-12.55,13.16-21.28,15.31-18.58,4.54-32.47,13.51-40.85,20.23-1.42,1.13-2.69,2.45-3.78,3.94-1.44,1.99-2.53,4.25-3.23,6.7-.8,2.82-1.02,5.71-.67,8.58,.18,1.51,.52,3.01,1.01,4.43,.04,.11,.07,.22,.12,.33l21.59,55.53c2.5,.66,5.06,1.2,7.65,1.59,3.53,.53,7.11,.8,10.65,.8,.93,0,1.85-.02,2.78-.06,19.25-.71,36.16-8.88,46.44-22.41,.2-.26,.41-.51,.62-.76,2.68-3.02,5.71-5.55,9-7.5,5.65-3.37,12.17-5.16,18.84-5.16,10.16,0,20.03,4.15,27.18,11.4,5.64,4.94,12.55,8.61,20.01,10.61,4.59,1.25,9.33,1.88,14.17,1.88,12.61,0,24.79-4.35,33.42-11.93,.08-.07,.17-.14,.25-.21,.8-.67,1.73-1.63,2.72-2.65,1.71-1.76,3.64-3.76,6.15-5.64,7.21-5.57,16.36-8.64,25.76-8.64s18.5,3.06,25.7,8.61c2.46,1.83,4.38,3.82,5.94,5.42,.49,.51,.98,1.01,1.49,1.51,2.85,2.74,6.06,5.12,9.47,7.01,.03,.02,.06,.03,.09,.05,7.44,4.2,16.21,6.41,25.34,6.41,12.25,0,23.86-3.93,32.71-11.07,.1-.08,.21-.16,.31-.24,.36-.27,.83-.69,1.38-1.18,.22-.2,.44-.39,.67-.59,3.15-3.07,6.68-5.52,10.51-7.3,4.91-2.3,10.39-3.52,15.85-3.52,8.57,0,16.89,2.92,23.43,8.23,.64,.51,1.29,1.08,2,1.73,.13,.12,.26,.25,.39,.38l.91,.92c.08,.08,.17,.17,.25,.25l.44,.47c.19,.2,.37,.41,.55,.63l.51,.63c1.88,2.29,3.66,4.46,5.46,6.13,.06,.06,.13,.12,.19,.18,.44,.42,.89,.83,1.34,1.22l.09,.08c2.02,1.79,4.18,3.44,6.45,4.93,41.29-22.21,66.77-57.36,73.77-70.71,1.2-2.3,1.98-3.98,2.32-4.75,.06-.12,.12-.26,.14-.32,.14-.28,.25-.58,.38-.96l.09-.31c.06-.18,.1-.37,.15-.65,.02-.09,.04-.19,.05-.28,.04-.22,.07-.44,.07-.59,.01-.06,.01-.12,.02-.18l-1-.06,1.01-.05c.01-.16,.01-.3,.01-.46h0c0-.26-.01-.51-.04-.76,0-.15-.02-.3-.05-.44Z"/>
    <path class="cls-1" d="M453.31,406.66c-17.4,4.58-35.54,4.15-51.88-2.42-6.97-2.82-13.63-6.79-19.18-11.83-2.61-2.32-5.06-4.94-7.17-7.73-.24-.34-.64-.77-.93-1.09-9.49-10.48-26.62-11.39-37.32-2.11-17.02,17.34-43.78,21.97-66.16,13.04-4.97-1.94-9.77-4.64-14.09-7.93l-.37-.27-.19-.14s-.12-.09-.14-.1c-3.89-3.85-9.2-6.33-14.64-6.71-7.02-.55-14.15,2.29-18.69,7.65-.41,.44-.61,.8-.91,1.26-2.85,4.46-6.37,8.56-10.31,12.24-8.76,8.23-19.54,13.91-31.35,18.06,17.65,6.27,39.79,2.32,55.95-8.68,29.14,34.85,85.29,37.73,119,7.32,.53-.46,1.06-.96,1.59-1.45,5.44,3.89,11.38,7.1,17.45,9.42,26.87,10.42,61.29,4.74,79.35-18.53Z"/>
  </g>
  <g id="Layer_2" data-name="Layer 2"/>
</svg>