<?xml version="1.0" encoding="UTF-8"?>
<svg xmlns="http://www.w3.org/2000/svg" width="512" height="512" viewBox="0 0 512 512">
  <defs>
    <style>
      .cls-1 {
        fill: #ffa07a;
      }
    </style>
  </defs>
  <g id="Layer_1" data-name="Layer 1">
    <path class="cls-1" d="M372.46,348.69c.23,4.37,.5,9.55,1.97,14.5,1.46,4.95,4.13,9.69,9.14,13.18,6.07,4.23,45.22,29.55,58.86,36.88,4.26,2.29,8.04,3.08,11.23,3.08,2.69,0,4.95-.56,6.72-1.25,8.33-3.22,12.84-11.71,15.15-18.26,4.58-12.99,5.04-31.64-8.76-41.44-.1-.07-.21-.14-.31-.21-1.35-.86-33.13-21.1-44.32-27.72-15.13-8.96-33.88-4.74-44.01-1.28L149.33,184.03c-1.26-10.64-5.56-29.32-20.14-39.09-10.81-7.24-42.79-27.17-44.14-28.01-.11-.07-.22-.13-.33-.19-14.79-8.22-31.41,.24-41.15,9.98-4.92,4.91-10.63,12.64-9.94,21.55,.32,4.12,2.2,10.14,9.4,15.4,12.5,9.14,52.24,33.53,58.67,37.18,10.62,6.03,21.69,1.43,29.77-1.92,3.02-1.26,6.38-2.65,8.61-2.98l231.36,143.73c.65,2.16,.84,5.76,1.02,9.01Z"/>
    <path class="cls-1" d="M210.04,254.72l-34.79-21.61c-47.81,54.05-81.44,109.1-102.3,148.39-26.81,50.51-38.58,85.68-39.07,87.15-.89,2.69-.19,5.66,1.82,7.66,1.43,1.43,3.34,2.2,5.3,2.2,.79,0,1.59-.12,2.36-.38,1.47-.49,36.64-12.26,87.15-39.07,45.44-24.13,111.99-65.37,173.67-125.85l-35.87-22.28c-17.47,18.86-35.54,31.71-50.43,35.7-11.05,2.97-19.77,1.05-26.67-5.84-6.88-6.89-8.79-15.61-5.83-26.66,3.15-11.77,11.85-25.53,24.66-39.4Zm-49.06,128.52c-6.68,6.67-14.87,10.14-22.34,10.14-5.47,0-10.53-1.85-14.35-5.67-9.04-9.03-7.07-25.14,4.47-36.69,11.55-11.54,27.66-13.51,36.69-4.48h0c9.03,9.04,7.06,25.15-4.48,36.7Z"/>
    <path class="cls-1" d="M476.3,35.7c-2-2.01-4.97-2.71-7.66-1.82-1.47,.49-36.64,12.26-87.15,39.07-46.4,24.64-114.8,67.1-177.56,129.69l38.21,23.74c17.18-12.54,35.01-22.02,48.96-25.76,4.25-1.14,8.03-1.7,11.18-1.7,3.81,0,6.68,.83,8.33,2.47,3,3.01,3.28,10.12,.77,19.51-2.9,10.84-9.28,24.02-17.85,37.41l39.62,24.61c49.72-55.33,84.53-112.15,105.9-152.41,26.81-50.51,38.58-85.68,39.07-87.15,.89-2.69,.19-5.66-1.82-7.66Zm-76.58,109.88h-20.75l-1.45,20.83c-.25,3.42-3.1,6.03-6.48,6.03-.16,0-.32,0-.48-.02-3.58-.26-6.27-3.38-6.01-6.96l1.38-19.89h-19.8c-3.59,0-6.5-2.91-6.5-6.5s2.91-6.5,6.5-6.5h20.75l1.45-20.83c.26-3.58,3.38-6.26,6.96-6.01,3.58,.26,6.27,3.38,6.01,6.96l-1.38,19.89h19.8c3.59,0,6.5,2.91,6.5,6.5s-2.91,6.5-6.5,6.5Z"/>
  </g>
  <g id="Layer_2" data-name="Layer 2"/>
</svg>