<?xml version="1.0" encoding="UTF-8"?>
<svg xmlns="http://www.w3.org/2000/svg" width="512" height="512" viewBox="0 0 512 512">
  <defs>
    <style>
      .cls-1 {
        fill: white;
      }
    </style>
  </defs>
  <g id="Layer_1" data-name="Layer 1">
    <path class="cls-1" d="M227.47,314.48c1.39,16.32,3.26,31.65,5.51,45.95l66.25-21.06c1.28-.41,2.66-.41,3.94,0l66.26,21.06c2.24-14.29,4.12-29.63,5.51-45.95l-73.73-23.42-73.73,23.42Z"/>
    <path class="cls-1" d="M235.16,373.37c7.77,43.11,18.85,75.66,29.52,95.81,3.05,5.75,8.98,9.32,15.48,9.32h42.09c6.5,0,12.43-3.57,15.48-9.32,10.67-20.15,21.75-52.7,29.52-95.81l-66.04-20.99-66.04,20.99Z"/>
    <path class="cls-1" d="M301.2,198.8l-75.99,24.15c-.29,8.51-.44,17.25-.44,26.26,0,18.2,.6,35.53,1.69,51.95l72.77-23.12c1.28-.41,2.66-.41,3.94,0l72.77,23.12c1.09-16.42,1.69-33.75,1.69-51.95,0-9.01-.15-17.75-.44-26.26l-76-24.15Z"/>
    <path class="cls-1" d="M176.04,152.94h4.91c4.14,0,7.5-3.36,7.5-7.5s-3.36-7.5-7.5-7.5h-24.82c-4.14,0-7.5,3.36-7.5,7.5s3.36,7.5,7.5,7.5h4.91v209.06c-5.22,8.93-26.68,47.48-26.68,77.89v8.03c0,16.86,13.72,30.58,30.58,30.58h7.19c16.87,0,30.59-13.72,30.59-30.58v-8.03c0-30.41-21.46-68.96-26.68-77.89V152.94Z"/>
    <path class="cls-1" d="M303.17,185.79l73.42,23.33c-3.14-57.45-13.32-102.57-30.41-134.46-17.44-32.56-37.04-41.16-44.97-41.16s-27.54,8.6-44.98,41.16c-17.08,31.89-27.27,77.01-30.41,134.46l73.41-23.33c1.28-.41,2.66-.41,3.94,0Z"/>
  </g>
  <g id="Layer_2" data-name="Layer 2"/>
</svg>