<?xml version="1.0" encoding="UTF-8"?>
<svg xmlns="http://www.w3.org/2000/svg" width="512" height="512" viewBox="0 0 512 512">
  <defs>
    <style>
      .cls-1 {
        fill: #ffa07a;
      }
    </style>
  </defs>
  <g id="Layer_1" data-name="Layer 1">
    <path class="cls-1" d="M427.55,71.34c-4.14,0-7.5,3.36-7.5,7.5V346.88l-24.31,37.7c-2.87,4.44-4.39,9.58-4.39,14.87v51.58c0,15.12,12.31,27.43,27.44,27.43h17.53c15.13,0,27.44-12.31,27.44-27.43v-51.58c0-5.29-1.52-10.43-4.38-14.87l-24.33-37.7V78.84c0-4.14-3.35-7.5-7.5-7.5Z"/>
    <path class="cls-1" d="M54.86,394.31l-6.4,51.19c-1.88,15,8.81,28.74,23.82,30.62l17.4,2.17c1.15,.15,2.31,.22,3.46,.22,6.06,0,11.92-2,16.78-5.78,5.79-4.5,9.47-10.98,10.38-18.25l6.4-51.19c.66-5.24-.21-10.53-2.5-15.3l-19.46-40.42L137.99,81.61c.52-4.11-2.4-7.86-6.51-8.38-4.11-.51-7.86,2.41-8.37,6.52l-33.25,265.96-28.81,34.39c-3.4,4.05-5.54,8.97-6.19,14.21Z"/>
    <rect class="cls-1" x="178.58" y="302.23" width="113.3" height="56.39"/>
    <path class="cls-1" d="M336.02,455.2l19.02-27.17c6.44-9.22,9.84-20.02,9.84-31.24V151.74c0-11.6-3.61-22.69-10.44-32.06l-46.37-63.75c-10.22-14.05-26.69-22.44-44.07-22.44h-57.54c-17.38,0-33.85,8.39-44.07,22.44l-12.69,17.45c1.17,3.04,1.63,6.41,1.19,9.86l-32.77,262.14,17.8,36.97c3.38,7.05,4.66,14.85,3.68,22.56l-6.12,48.92,.96,1.37c10.19,14.57,26.89,23.26,44.65,23.26h112.28c17.76,0,34.46-8.69,44.65-23.26Zm-157.42-36.74l-13.02-18.61V148.8l40.24-55.3h58.82l40.24,55.3v251.05l-13.02,18.61h-113.26Z"/>
    <rect class="cls-1" x="178.58" y="207.25" width="113.3" height="56.39"/>
  </g>
  <g id="Layer_2" data-name="Layer 2"/>
</svg>