<?xml version="1.0" encoding="UTF-8"?>
<svg xmlns="http://www.w3.org/2000/svg" width="512" height="512" viewBox="0 0 512 512">
  <defs>
    <style>
      .cls-1 {
        fill: white;
      }
    </style>
  </defs>
  <g id="Layer_1" data-name="Layer 1">
    <path class="cls-1" d="M397.43,440.07c-2.17-2.11-4.13-4.44-5.95-6.84l-.37-.41-.43-.45-.88-.89c-6.84-6.48-17.32-8.13-25.98-4.06-2.57,1.18-4.93,2.86-6.92,4.87-.92,.78-1.78,1.56-2.74,2.28-17.93,14.13-44.57,15.96-64.28,4.79-3.17-1.77-6.14-3.85-8.8-6.2-2.74-2.29-4.87-5.15-7.75-7.27-9.95-7.75-24.75-7.74-34.69,0-2.87,2.12-5.02,4.99-7.74,7.28-19.88,17.55-52.33,17.88-73.12,1.44-.96-.72-1.83-1.5-2.74-2.28-7.36-7.64-19.86-9.3-28.8-3.83-2.14,1.27-4.04,2.91-5.68,4.78-18.58,25.02-54.51,31.52-83.05,19.97,15.06,15.63,38.36,22.31,60.2,19.6,11.4-1.39,22.77-5.4,32.89-11.95,1.79-1.14,3.59-2.44,5.33-3.79,.08,.09,.16,.19,.25,.27,30.4,33.03,85.59,35.43,119.81,6.76,14.61,12.01,33.33,19.1,52.02,19.91,25.12,1.38,50.87-8.31,68-26.79,28.34,22.16,73.18,22.16,98.46-4-25.83,10.32-57.22,6.24-77.06-13.17Z"/>
    <path class="cls-1" d="M306.81,35.58c0-1.88-.59-3.76-1.84-5.17-2.4-2.71-6.18-3.29-9.19-1.69-1.61,.86-39.93,21.54-87.2,70.58-27.67,28.7-52.66,61.22-74.28,96.65-27,44.25-48.79,93.19-64.78,145.48-.69,2.27-.27,4.74,1.14,6.65,1.42,1.91,3.66,3.04,6.03,3.04h209.93v27.03h-92.65c-3.85,0-7.08,2.92-7.46,6.75l-.88,8.82H81.36c-4.14,0-7.5,3.36-7.5,7.5v44.07c14.98-1.81,28.2-8.91,36.27-19.77,.21-.29,.44-.56,.67-.83,2.58-2.94,5.52-5.4,8.73-7.32,5.47-3.33,11.86-5.09,18.49-5.09,9.8,0,19.21,3.84,25.93,10.55l.23,.2c.55,.48,1.03,.89,1.39,1.17,.09,.07,.18,.14,.27,.21,7.53,5.96,17.41,9.23,27.81,9.23,11.01,0,21.18-3.63,28.64-10.22,.08-.07,.15-.13,.23-.2,.69-.58,1.52-1.44,2.4-2.34,1.54-1.58,3.45-3.55,5.86-5.35,7.07-5.46,16.01-8.46,25.21-8.46s18.14,3,25.19,8.45c2.4,1.79,4.29,3.73,5.81,5.3,.88,.91,1.72,1.77,2.41,2.35,.09,.08,.19,.16,.28,.24,1.93,1.7,4.12,3.25,6.53,4.59,6.5,3.68,14.08,5.61,22.01,5.61,10.41,0,20.31-3.29,27.88-9.25,.08-.07,.17-.13,.26-.2,.35-.26,.81-.66,1.35-1.12l.35-.3c3.05-2.99,6.51-5.38,10.28-7.11,4.79-2.24,10.13-3.42,15.45-3.42,9.39,0,18.25,3.5,24.94,9.84,.1,.1,.21,.2,.31,.3l.88,.89c.08,.08,.77,.81,.82,.87l.37,.41c.25,.27,.48,.56,.71,.85,1.65,2.17,3.18,3.94,4.67,5.38,3.91,3.82,8.46,6.96,13.47,9.36,14.35-12.66,26.58-38.26,31.66-51.82,.87-2.31,.54-4.89-.86-6.91s-3.7-3.23-6.16-3.23h-137.8V35.58Z"/>
    <polygon class="cls-1" points="319.81 351.12 416.17 365.15 319.81 88.44 319.81 351.12"/>
  </g>
  <g id="Layer_2" data-name="Layer 2"/>
</svg>