<?xml version="1.0" encoding="UTF-8"?>
<svg xmlns="http://www.w3.org/2000/svg" width="512" height="512" viewBox="0 0 512 512">
  <defs>
    <style>
      .cls-1 {
        fill: #ffa07a;
      }
    </style>
  </defs>
  <g id="Layer_1" data-name="Layer 1">
    <path class="cls-1" d="M41.36,450.75c0,15.16,12.34,27.5,27.5,27.5h79.72c15.17,0,27.5-12.34,27.5-27.5v-74.79H41.36v74.79Z"/>
    <path class="cls-1" d="M269.84,465.72c-8.38-12.44-11.16-27.12-7.83-41.34l8.29-35.33c.16-.7,.25-1.44,.26-2.19,.03-1.75,.4-3.45,1.09-5.02-1.36-1.66-2.32-3.67-2.72-5.88h-79.85v74.79c0,15.16,12.34,27.5,27.5,27.5h64.78c-4.43-3.58-8.33-7.79-11.52-12.53Z"/>
    <rect class="cls-1" x="41.36" y="196.45" width="134.72" height="164.51"/>
    <path class="cls-1" d="M189.08,360.96h77.34l-7-41.97c-4.91-29.45-3.19-58.82,5.1-87.29l10.27-35.25h-85.71v164.51Z"/>
    <path class="cls-1" d="M116.22,75.47v-27.22h16.72c4.14,0,7.5-3.36,7.5-7.5s-3.36-7.5-7.5-7.5h-48.43c-4.14,0-7.5,3.36-7.5,7.5s3.36,7.5,7.5,7.5h16.71v27.22c-33.21,1.18-59.86,28.56-59.86,62.06v43.92H176.08v-43.92c0-33.5-26.65-60.88-59.86-62.06Z"/>
    <path class="cls-1" d="M189.08,137.52v43.93h90.08l1.8-6.16c2.96-10.17,9.97-18.45,19.72-23.32,5.68-2.84,12.08-4.34,18.51-4.34,1.54,0,3.08,.08,4.61,.25v-10.36c0-33.49-26.66-60.87-59.87-62.05v-27.22h16.72c4.14,0,7.5-3.36,7.5-7.5s-3.36-7.5-7.5-7.5h-48.43c-4.14,0-7.5,3.36-7.5,7.5s3.36,7.5,7.5,7.5h16.71v27.22c-33.21,1.18-59.85,28.56-59.85,62.05Z"/>
    <path class="cls-1" d="M380.64,402.1c-.64,1.25-1.02,2.58-1.13,3.95l-2.85,36.18c-1.08,13.72-7.46,26.18-18.04,35.35,1,.22,2.02,.42,3.04,.58,2.53,.39,5.06,.59,7.57,.59,10.5,0,20.65-3.39,28.65-9.72,8.89-7.03,14.26-16.91,15.12-27.82l2.85-36.18c.13-1.67,.45-3.3,.93-4.9l-32.57-4.99-3.57,6.96Z"/>
    <path class="cls-1" d="M441.18,172.23l-16.52,.86c6.49,7.3,9.91,16.44,9.66,26.06l-1.48,58.74c-.75,29.64-8.04,58.14-21.67,84.71l-20.67,40.28,32.14,4.99,26.27-51.2c12.73-24.81,19.54-51.43,20.24-79.1l1.48-58.74c.17-6.93-2.59-13.52-7.77-18.57-5.68-5.53-13.58-8.45-21.68-8.03Z"/>
    <path class="cls-1" d="M366.55,405.03c.13-1.68,.45-3.32,.93-4.92l-83.92-13.06c-.02,1.67-.22,3.33-.61,4.97l-8.28,35.33c-2.5,10.66-.39,21.7,5.95,31.1,7.07,10.49,18.63,17.67,31.73,19.71,2.53,.39,5.06,.59,7.57,.59,10.5,0,20.65-3.39,28.65-9.72,8.89-7.03,14.26-16.91,15.12-27.82l2.85-36.18Z"/>
    <path class="cls-1" d="M306.49,163.6c-6.48,3.23-11.11,8.68-13.05,15.33l-16.44,56.41c-7.74,26.58-9.35,54-4.76,81.51l9.46,56.76,91.62,14.26,26.27-51.19c12.73-24.81,19.54-51.43,20.24-79.1l1.48-58.74c.17-6.93-2.59-13.52-7.77-18.57-5.68-5.53-13.58-8.45-21.68-8.03l-29.14,1.52c-1.96,.11-3.99-.21-5.83-.91l-27.3-10.31c-7.59-2.87-16-2.48-23.09,1.06Zm39.63,175.05l11.49-22.77c9.2-18.24,14.15-37.79,14.72-58.11l.84-30.26c.1-3.59,3.14-6.43,6.68-6.32,3.59,.1,6.42,3.09,6.32,6.68l-.84,30.26c-.63,22.25-6.05,43.65-16.11,63.61l-11.49,22.78c-1.14,2.27-3.43,3.57-5.81,3.57-.98,0-1.98-.22-2.92-.7-3.21-1.62-4.49-5.53-2.88-8.73Zm-19.96-125.83c3.45,.99,5.44,4.6,4.45,8.05l-8.38,29.08c-5.62,19.53-6.83,39.66-3.59,59.84l4.11,25.72c.57,3.54-1.85,6.88-5.39,7.44-.35,.06-.69,.08-1.03,.08-3.14,0-5.9-2.28-6.41-5.47l-4.11-25.72c-3.54-22.08-2.22-44.12,3.94-65.5l8.38-29.08c.99-3.45,4.6-5.44,8.05-4.45Z"/>
  </g>
  <g id="Layer_2" data-name="Layer 2"/>
</svg>