<?xml version="1.0" encoding="UTF-8"?>
<svg xmlns="http://www.w3.org/2000/svg" width="512" height="512" viewBox="0 0 512 512">
  <defs>
    <style>
      .cls-1 {
        fill: #ffa07a;
      }
    </style>
  </defs>
  <g id="Layer_1" data-name="Layer 1">
    <path class="cls-1" d="M121.81,100.97h180.29c6.87,0,13.57,.98,19.94,2.89,5.95,1.77,11.62,4.35,16.88,7.68-.51-6.03-2.08-11.76-4.52-17.02-8.13-17.58-25.94-29.81-46.55-29.81H136.07c-20.61,0-38.41,12.22-46.55,29.8-2.44,5.26-4.01,10.99-4.52,17.02,5.26-3.33,10.93-5.9,16.89-7.67,6.36-1.91,13.05-2.89,19.92-2.89Z"/>
    <path class="cls-1" d="M434.7,33.5h-36c-4.14,0-7.5,3.36-7.5,7.5v28.53h51v-28.53c0-4.14-3.35-7.5-7.5-7.5Z"/>
    <path class="cls-1" d="M391.2,167.06h-32.87c-.68-12.67-5.72-24.55-14.56-33.98-3.84-4.1-8.19-7.51-12.92-10.19h0c-.43-.19-.84-.41-1.22-.66-.02-.01-.03-.02-.04-.03-7.69-4.08-16.32-6.24-25.33-6.24H123.96c-9.01,0-17.62,2.15-25.31,6.23,0,0,0,.01-.01,.01-.39,.27-.81,.5-1.26,.68h-.01c-4.73,2.69-9.08,6.1-12.92,10.2-10.33,11.02-15.49,25.39-14.54,40.46l2.53,28.76c.01,.06,.01,.12,.02,.18,1.84,28.41,25.58,50.67,54.05,50.67h33.63c4.05,0,7.85-1.58,10.71-4.44l21.94-21.93c5.69-5.7,13.26-8.83,21.32-8.83s15.62,3.13,21.31,8.83l21.94,21.93c2.86,2.86,6.67,4.44,10.71,4.44h33.63c28.48,0,52.22-22.26,54.06-50.67,0-.06,0-.12,.01-.18l.02-.25h35.41v149.64c0,41.8-34,75.8-75.8,75.8s-75.8-34-75.8-75.8v-14.94c13.89-8.58,23.17-23.94,23.17-41.43,0-4.14-3.36-7.5-7.5-7.5s-7.5,3.36-7.5,7.5c0,18.56-15.1,33.66-33.66,33.66s-33.66-15.1-33.66-33.66c0-4.14-3.36-7.5-7.5-7.5s-7.5,3.36-7.5,7.5c0,17.48,9.27,32.84,23.15,41.41v14.96c0,69.92,56.89,126.8,126.8,126.8s126.8-56.88,126.8-126.8V84.53h-51v82.53Zm-116.43,60.23c-1.28,1.38-3.02,2.08-4.76,2.08-1.58,0-3.17-.57-4.42-1.74l-18.44-17.13c-8.92-8.28-20.8-12.84-33.47-12.84s-24.55,4.56-33.46,12.84l-18.44,17.13c-1.2,1.12-2.78,1.74-4.42,1.74h-28.61c-18.21,0-33.41-13.41-34.6-30.52-.01-.18-.03-.36-.04-.53l-2.43-25.58c0-.08-.01-.16-.02-.24-.53-9.08,2.84-17.71,9.49-24.3,6.61-6.55,15.53-10.15,25.13-10.15,3.59,0,6.5,2.91,6.5,6.5s-2.91,6.5-6.5,6.5c-6.15,0-11.82,2.27-15.98,6.39-3.93,3.9-5.95,8.93-5.67,14.19l2.42,25.46c.03,.29,.05,.58,.07,.86,.72,10.32,10.22,18.42,21.63,18.42h26.06l16.57-15.39c11.33-10.52,26.35-16.31,42.31-16.31s30.99,5.79,42.31,16.31l18.44,17.13c2.63,2.44,2.78,6.56,.34,9.19Z"/>
  </g>
  <g id="Layer_2" data-name="Layer 2"/>
</svg>