<?xml version="1.0" encoding="UTF-8"?>
<svg xmlns="http://www.w3.org/2000/svg" width="512" height="512" viewBox="0 0 512 512">
  <defs>
    <style>
      .cls-1 {
        fill: white;
      }
    </style>
  </defs>
  <g id="Layer_1" data-name="Layer 1">
    <path class="cls-1" d="M413.31,226.45c-44.6-1.07-85.89,24.26-105.19,64.48l-53.38,111.47c27.92-20.22,54.78-43.01,78.9-67.13,35.35-35.35,64.84-71.93,87.76-108.82h-7.93s-.11,0-.16,0Z"/>
    <path class="cls-1" d="M239.83,281.37c-1.27,1.27-2.93,1.9-4.6,1.9s-3.33-.63-4.6-1.9c-2.54-2.54-2.54-6.65,0-9.19L468.84,33.96c-8.77-.81-39.25-2.18-84.5,11.23-14.76,4.37-29.67,9.92-44.61,16.56l1.59,66.97c.09,3.59-2.75,6.57-6.34,6.65-.05,0-.11,0-.16,0-3.52,0-6.41-2.81-6.5-6.35l-1.46-61.3c-9.46,4.6-18.92,9.64-28.36,15.1l.04,15.62c1.15,49.67-27.05,95.65-71.86,117.15l-108.14,51.87s-.07,.03-.11,.05l-23.39,10.69c-10.22,15.36-19.6,30.91-27.92,46.39-25.81,47.97-37.62,87.92-32.42,109.6,.32,1.35,1.01,2.58,1.99,3.55l37.55,37.55c.98,.98,2.21,1.67,3.55,1.99,3.36,.81,7.16,1.2,11.36,1.2,22.9,0,57.7-11.82,98.24-33.62,15.26-8.21,30.6-17.45,45.75-27.5l63.24-132.05c21.49-44.81,67.45-73.01,117.14-71.86h15.67c5.45-9.44,10.47-18.88,15.06-28.32l-61.29-1.46c-3.59-.08-6.43-3.06-6.34-6.65s3.03-6.41,6.65-6.34l66.95,1.59c6.64-14.94,12.2-29.85,16.57-44.61,13.41-45.25,12.04-75.73,11.23-84.5l-238.21,238.21Zm-72.74,72.74l-62.24,62.24c-1.27,1.27-2.93,1.9-4.6,1.9s-3.33-.63-4.6-1.9c-2.54-2.54-2.54-6.65,0-9.19l62.24-62.24c2.54-2.54,6.65-2.54,9.19,0,2.54,2.54,2.54,6.65,0,9.19Z"/>
    <path class="cls-1" d="M285.53,90.62c-36.88,22.92-73.45,52.4-108.79,87.74-24.12,24.12-46.92,50.98-67.14,78.9l3.38-1.55,108.08-51.84c40.23-19.3,65.54-60.58,64.48-105.19,0-.04,0-.09,0-.14l-.02-7.93Z"/>
  </g>
  <g id="Layer_2" data-name="Layer 2"/>
</svg>