<?xml version="1.0" encoding="UTF-8"?>
<svg xmlns="http://www.w3.org/2000/svg" width="512" height="512" viewBox="0 0 512 512">
  <defs>
    <style>
      .cls-1 {
        fill: #ffa07a;
      }
    </style>
  </defs>
  <g id="Layer_1" data-name="Layer 1">
    <path class="cls-1" d="M403.79,288.41c-2.27-2.61-5.09-4.74-8.24-6.17-9.5-4.34-20.88-1.91-28.14,5.7-7.31,6.51-16.23,11.21-25.6,13.73-20.32,5.55-43.66,1.13-59.51-12.81-2.98-2.46-5.3-5.6-8.42-7.91-10.24-7.99-25.49-7.97-35.73,0-2.32,1.69-4.15,3.88-6.19,5.87-3.66,3.55-7.74,6.57-12.25,9.09-22.34,12.61-52.51,10.4-72.64-5.83-1.07-.82-2.03-1.71-3.05-2.6-7.62-7.93-20.57-9.65-29.85-3.99-2.22,1.32-4.2,3.01-5.9,4.95-20.9,27.49-60.87,34.38-92.25,20.99,28.27,28.17,77.89,27.72,108.4,2.3,33.44,37.04,94.2,39.31,131.59,7.19,37.38,32.13,98.12,29.93,131.61-7.12,30.53,25.4,80.13,25.82,108.4-2.38-31.4,13.35-71.32,6.46-92.21-21.03Z"/>
    <path class="cls-1" d="M418.88,248.13c32.88,0,59.62-26.74,59.62-59.62s-26.74-59.61-59.62-59.61-59.61,26.74-59.61,59.61,26.74,59.62,59.61,59.62Z"/>
    <path class="cls-1" d="M135.46,268.28c6.63,1.62,12.72,4.98,17.48,9.76,.17,.15,.34,.3,.5,.45,.59,.52,1.1,.97,1.5,1.28,.09,.07,.18,.14,.27,.21,8.84,7.13,20.46,11.06,32.7,11.06,9.15,0,17.93-2.22,25.39-6.43,3.56-1.98,6.77-4.37,9.6-7.11,.43-.43,.91-.92,1.39-1.42,1.57-1.63,3.52-3.65,6-5.49,7.21-5.56,16.33-8.61,25.71-8.61s18.52,3.06,25.72,8.63c2.5,1.87,4.42,3.85,6.11,5.59,.99,1.02,1.92,1.98,2.71,2.63,.11,.09,.22,.18,.32,.27,8.6,7.56,20.76,11.9,33.37,11.9,4.84,0,9.59-.63,14.13-1.87,7.51-2.03,14.42-5.69,20.05-10.61,4.92-4.99,11.11-8.51,17.8-10.23l-92.23-140.51c-15.08-22.97-42.18-34.13-69.08-28.44l-97.03,20.73c-9.58,2.02-17.79,7.67-23.11,15.89-5.33,8.22-7.12,18.02-5.05,27.59,2.11,9.72,7.9,17.97,16.33,23.25,8.42,5.28,18.38,6.89,28.03,4.54l89.07-21.69,23.48,35.77-107.79,60.99-3.39,1.87Z"/>
    <path class="cls-1" d="M280.09,385.59c-2.98-3.09-5.63-6.56-7.89-10.12,.01,0-.24-.29-.39-.46l-.51-.57c-8.65-9.56-24.1-9.35-33.06-.27-7.77,6.05-16.9,9.97-26.49,11.76-9.67,1.71-19.93,1.29-29.31-1.52-8.16-2.37-15.74-6.49-22.04-12.15-.17-.16-.71-.6-.87-.76-4.16-4.33-9.9-7.3-15.74-8.1-8.85-1.35-18.29,2.08-24.13,8.84-2.59,3.46-5.64,6.63-8.92,9.45-19.16,15.98-45.72,19.45-69.75,12.99,18.08,23.22,52.46,28.89,79.32,18.48,6.07-2.33,12.01-5.52,17.46-9.42,33.5,31.77,90.72,29.86,120.61-5.75,16.16,10.98,38.31,14.91,55.94,8.61-13.17-4.65-24.96-11.16-34.25-21.01Z"/>
  </g>
  <g id="Layer_2" data-name="Layer 2"/>
</svg>