<?xml version="1.0" encoding="UTF-8"?>
<svg xmlns="http://www.w3.org/2000/svg" width="512" height="512" viewBox="0 0 512 512">
  <defs>
    <style>
      .cls-1 {
        fill: #ffa07a;
      }
    </style>
  </defs>
  <g id="Layer_1" data-name="Layer 1">
    <path class="cls-1" d="M411.14,261.67c1.56,1.15,3.17,2.23,4.79,3.2,19.78,11.99,47.05,11.26,65.13-3.54,4.8-3.87,8.73-8.65,11.34-13.89-9.57,5.66-19.6,8.62-30.44,8.44-13.49-.12-27.48-5.67-36.18-16.07-3.97-5.52-10.93-8.64-17.65-8.05-4.88,.36-9.72,2.7-13.07,6.25-.65,.57-1.29,1.2-1.98,1.72-9.71,8.05-23.16,10.87-35.53,8.5-.22,9.6-.5,19.45-.83,29.8,2.22,.35,4.46,.59,6.7,.71,17.32,1.03,35.01-5.1,47.72-17.07Z"/>
    <path class="cls-1" d="M83.81,264.87c1.62-.97,3.23-2.05,4.79-3.2,12.71,11.97,30.4,18.1,47.72,17.07,2.24-.12,4.48-.36,6.7-.71-.32-10.13-.6-20.11-.84-29.8-12.37,2.36-25.81-.45-35.52-8.5-.69-.52-1.33-1.15-1.98-1.72-3.35-3.55-8.19-5.89-13.07-6.25-6.72-.59-13.68,2.53-17.65,8.05-8.7,10.4-22.69,15.95-36.18,16.07-10.84,.18-20.87-2.78-30.44-8.44,2.61,5.24,6.54,10.02,11.34,13.89,18.08,14.8,45.35,15.53,65.13,3.54Z"/>
    <path class="cls-1" d="M273.85,463.49c.29,3.83,3.49,6.78,7.32,6.78h45.49c3.83,0,7.03-2.95,7.32-6.78,.03-.3,.51-6.49,1.25-17.33h-62.63c.75,10.84,1.23,17.03,1.25,17.33Z"/>
    <path class="cls-1" d="M173.08,470.27h45.49c3.83,0,7.03-2.95,7.32-6.78,.02-.3,.5-6.49,1.25-17.33h-62.63c.75,10.84,1.22,17.03,1.25,17.33,.29,3.83,3.48,6.78,7.32,6.78Z"/>
    <path class="cls-1" d="M236.68,238.62v-.14c.45-21.04,.72-42.4,.72-63.55,0-99.94-12.05-140.7-41.58-140.7s-41.57,40.76-41.57,140.7c0,21.15,.27,42.51,.72,63.55,0,.04-.01,.09-.01,.14,0,.06,.01,.13,.01,.19,.31,14.51,.71,28.84,1.17,42.84,0,.04-.01,.07-.01,.1,0,.15,.02,.3,.02,.44,2.07,62.61,5.35,118.33,7.49,150.97h64.37c2.14-32.6,5.41-88.25,7.47-150.77,.02-.22,.03-.42,.03-.64,0-.05,0-.09-.01-.13,.46-13.99,.87-28.31,1.17-42.81,.01-.06,.01-.13,.01-.19Zm-15.65,35.78h-50.41c-.38-11.8-.7-23.84-.95-35.98,.08-17.35,11.78-31.43,26.15-31.43s26.07,14.08,26.16,31.43c-.25,12.14-.58,24.18-.95,35.98Z"/>
    <path class="cls-1" d="M344.77,238.62v-.14c.45-21.04,.72-42.4,.72-63.55,0-99.94-12.05-140.7-41.58-140.7s-41.57,40.76-41.57,140.7c0,21.15,.27,42.51,.72,63.55,0,.04-.01,.09-.01,.14,0,.06,.01,.13,.01,.19,.31,14.51,.72,28.84,1.18,42.84,0,.04-.01,.07-.01,.1,0,.15,.02,.3,.02,.44,2.06,62.61,5.34,118.33,7.48,150.97h53.49l-25.75-18.59c-4.44-3.2-7.37-7.94-8.24-13.35-.88-5.41,.41-10.83,3.61-15.27,3.85-5.32,10.06-8.5,16.63-8.5,3.43,0,6.75,.84,9.73,2.45l18.42-6.15c1.42-26.9,2.86-58.16,3.96-91.36,.02-.22,.03-.42,.03-.64,0-.05,0-.09,0-.13,.46-13.99,.86-28.31,1.16-42.81,.01-.06,.01-.13,.01-.19Zm-15.65,35.78h-50.41c-.37-11.8-.7-23.84-.95-35.98,.09-17.35,11.79-31.43,26.15-31.43s26.08,14.08,26.16,31.43c-.25,12.14-.57,24.18-.95,35.98Z"/>
    <path class="cls-1" d="M496.43,299.61c-39.87,3.92-58.55,28.55-72.19,46.54-6.91,9.11-12.88,16.97-19.37,19.51l-85.68,28.62-3.34-2.41c-3.36-2.42-8.05-1.67-10.47,1.69s-1.67,8.05,1.69,10.47l93.76,67.68,.02,.02,6.4,4.62c1.33,.96,2.86,1.42,4.38,1.42,2.33,0,4.62-1.08,6.09-3.11,2.42-3.36,1.67-8.05-1.69-10.47l-3.25-2.35,2.08-84.46c8.16-4.85,14.58-13.29,21.31-22.17,13.3-17.53,28.37-37.4,61.71-40.67,4.12-.4,7.14-4.07,6.73-8.2-.4-4.12-4.07-7.14-8.2-6.73Zm-98.38,151.59l-63.88-46.11,65.56-21.9-1.68,68.01Z"/>
  </g>
  <g id="Layer_2" data-name="Layer 2"/>
</svg>